<?xml version="1.0" encoding="utf-8"?>
<!-- Generator: Adobe Illustrator 25.1.0, SVG Export Plug-In . SVG Version: 6.00 Build 0)  -->
<svg version="1.1" id="Layer_1" xmlns="http://www.w3.org/2000/svg" xmlns:xlink="http://www.w3.org/1999/xlink" x="0px" y="0px"
	 viewBox="0 0 402.6 479.4" style="enable-background:new 0 0 402.6 479.4;" xml:space="preserve">
<style type="text/css">
	.st0{fill:#9ADBA9;}
	.st1{fill:#FFFFFF;}
	.st2{fill:#1D1D1B;}
	.st3{fill:#6AA575;}
</style>
<path class="st0" d="M345.9,154.7c-1.9-11.9-12.1-20.7-24.2-20.7h-240c-12.1,0-22.3,8.8-24.2,20.7L11.7,413.1c0,27.1,21.9,49,49,49
	c0,0,0,0,0,0h281.9c27.1,0,49-21.9,49-49c0,0,0,0,0,0L345.9,154.7z"/>
<path class="st1" d="M270.6,268.7c5.8,29.8-12.6,69.7-67.2,91.8c-0.6,0.2-1.2,0.3-1.8,0.4c-0.6,0-1.2-0.2-1.8-0.4
	c-54.4-21.6-73-61.6-67.2-91.8c3.9-20.4,18.1-33.4,36.5-33.4c10.4,0,21.4,4.2,32.5,12.5c10.9-7.9,22.1-12.1,32.3-12.1
	C252.4,235.7,266.6,248.6,270.6,268.7L270.6,268.7z"/>
<path class="st2" d="M282.7,193.4c-3.3,0-6-2.7-6-6V96.7c0-41.4-33.6-75-75-75s-75,33.6-75,75v90.8c0,3.3-2.7,6-6,6s-6-2.7-6-6V96.7
	c0-48.1,39-87,87-87s87,39,87,87v90.8C288.7,190.7,286,193.4,282.7,193.4z"/>
<path class="st3" d="M42.6,413.1l45.8-258.5c1.9-11.9,12.1-20.7,24.2-20.7h-30c-12.1,0-22.3,8.8-24.2,20.7L12.6,413.1
	c0,27.1,21.9,49,49,49l0,0h30C64.6,462.2,42.6,440.2,42.6,413.1L42.6,413.1z"/>
</svg>
